#!OML:ASF H:\GeneralSubjects\Female5\Project 1\Capture day 1\Session 1\Female5.ASF
:FULLY-SPECIFIED
:DEGREES
87
root 24.3555 15.5549 3.32768 126.506 -87.4145 -117.442
lowerback 7.76624 0.782763 -1.92634
upperback -8.34112 0.857308 2.10047
thorax -13.5816 0.656436 3.25261
lowerneck -10.1966 -0.368336 -1.96631
upperneck 45.3116 -3.76566 1.06157
head 19.124 -2.68701 -0.14573
rclavicle -7.70291e-016 -2.56432e-014
rhumerus -46.5175 18.4894 -81.7086
rradius 31.7639
rwrist -12.82
rhand -14.3565 -23.4326
rfingers 7.12502
rthumb 11.7853 -53.081
lclavicle -7.70291e-016 -2.56432e-014
lhumerus -42.5175 0.0100569 85.0893
lradius 28.2364
lwrist -7.20739
lhand -25.6686 35.2165
lfingers 7.12502
lthumb 0.865829 65.1944
rfemur -30.3168 15.1577 20.839
rtibia 8.58054
rfoot -25.043 -28.5536
rtoes -7.2649
lfemur 6.64949 -29.2991 -37.4571
ltibia -3.87165
lfoot -34.5012 25.2529
ltoes -60.9418
88
root 24.2825 15.5464 3.31332 118.535 -87.4291 -109.304
lowerback 7.81597 0.703312 -1.62649
upperback -8.28129 0.798208 2.13948
thorax -13.5305 0.600958 3.13679
lowerneck -9.67416 0.127268 -1.69645
upperneck 46.7429 -3.49946 1.18313
head 19.9516 -2.59754 -0.126069
rclavicle -1.61513e-015 -1.76918e-014
rhumerus -46.098 18.3819 -81.6536
rradius 31.2252
rwrist -12.4513
rhand -14.7767 -22.6089
rfingers 7.12502
rthumb 11.3801 -52.2801
lclavicle -1.61513e-015 -1.76918e-014
lhumerus -42.372 0.0507281 85.1035
lradius 28.1467
lwrist -7.38932
lhand -25.5657 34.8871
lfingers 7.12502
lthumb 0.965219 64.8647
rfemur -30.3767 18.6871 19.4543
rtibia 5.68085
rfoot -27.733 -30.7867
rtoes -3.78107
lfemur 6.66971 -29.0838 -37.2412
ltibia -3.766
lfoot -33.8092 25.6161
ltoes -61.6246
89
root 24.1998 15.5398 3.30075 109.209 -87.6084 -99.8281
lowerback 7.54729 0.749416 -1.81997
upperback -8.1136 0.854963 2.26641
thorax -13.1774 0.649663 3.37086
lowerneck -8.96825 0.449952 -1.44528
upperneck 48.112 -3.45189 1.15106
head 20.7429 -2.61471 -0.216594
rclavicle -9.93923e-016 -9.14409e-015
rhumerus -45.704 17.9849 -81.1233
rradius 31.4049
rwrist -12.7886
rhand -14.0232 -24.1947
rfingers 7.12502
rthumb 12.1068 -53.8244
lclavicle -9.93923e-016 -9.14409e-015
lhumerus -42.127 -0.638471 85.8257
lradius 28.151
lwrist -7.04565
lhand -25.472 35.1598
lfingers 7.12502
lthumb 1.05568 65.1369
rfemur -30.5602 23.2012 17.1433
rtibia 2.90693
rfoot -32.4245 -33.3106
rtoes 1.95861
lfemur 6.7407 -29.0377 -37.3282
ltibia -3.55694
lfoot -33.2855 25.7509
ltoes -61.9747
90
root 24.111 15.5322 3.2932 96.5196 -87.8861 -86.9797
lowerback 7.47533 0.706416 -1.91388
upperback -7.99505 0.789742 2.26733
thorax -12.9906 0.625631 3.43402
lowerneck -8.75087 0.806506 -1.23491
upperneck 49.5404 -3.34108 1.10456
head 21.9236 -2.61111 -0.308195
rclavicle -2.13694e-015 1.39149e-014
rhumerus -45.4398 17.798 -80.8843
rradius 31.3686
rwrist -12.7364
rhand -14.0842 -24.26
rfingers 7.12502
rthumb 12.0479 -53.8932
lclavicle -2.13694e-015 1.39149e-014
lhumerus -41.7811 -0.85061 86.1872
lradius 27.9577
lwrist -7.0719
lhand -25.2693 35.7414
lfingers 7.12502
lthumb 1.25143 65.7175
rfemur -31.2994 29.2989 13.4382
rtibia 0.45841
rfoot -41.0078 -35.9958
rtoes 8.74537
lfemur 6.8088 -28.8716 -37.6094
ltibia -3.33022
lfoot -32.7167 25.5553
ltoes -62.4231
91
root 24.0195 15.5225 3.28763 82.0679 -87.8916 -72.3763
lowerback 7.51359 0.632985 -1.70914
upperback -7.88417 0.721604 2.25871
thorax -12.8739 0.572488 3.31892
lowerneck -7.95592 1.12784 -1.14167
upperneck 50.6363 -3.30664 1.21227
head 22.6425 -2.64218 -0.296579
rclavicle -1.21756e-015 3.57812e-015
rhumerus -45.1759 17.8111 -80.8768
rradius 30.8899
rwrist -12.0327
rhand -15.2378 -22.5055
rfingers 7.12502
rthumb 10.9354 -52.2008
lclavicle -1.21756e-015 3.57812e-015
lhumerus -41.7123 -1.52585 86.6998
lradius 28.233
lwrist -6.52845
lhand -24.8857 35.9052
lfingers 7.12502
lthumb 1.62197 65.8788
rfemur -29.9392 28.8921 14.2248
rtibia -2.33132
rfoot -43.134 -32.8574
rtoes 15.5495
lfemur 6.95444 -28.5375 -37.6852
ltibia -3.31026
lfoot -32.0322 25.2496
ltoes -62.808
92
root 23.9223 15.5114 3.27587 70.1462 -87.7765 -60.2816
lowerback 7.50638 0.594585 -1.58436
upperback -7.75287 0.692255 2.26505
thorax -12.7113 0.545738 3.2576
lowerneck -7.08201 1.35698 -1.03401
upperneck 51.5251 -3.3292 1.20226
head 23.1729 -2.69656 -0.3544
rclavicle -4.00054e-015 5.56597e-015
rhumerus -44.6871 17.505 -80.6014
rradius 31.0383
rwrist -12.4656
rhand -14.5346 -23.4324
rfingers 7.12502
rthumb 11.6136 -53.0906
lclavicle -4.00054e-015 5.56597e-015
lhumerus -41.6415 -2.21194 87.179
lradius 28.6267
lwrist -6.05486
lhand -24.3335 36.0215
lfingers 7.12502
lthumb 2.15524 65.9903
rfemur -29.6275 28.4745 14.8372
rtibia -3.8826
rfoot -41.1328 -32.8976
rtoes 13.8881
lfemur 7.25259 -28.3489 -37.7348
ltibia -3.58609
lfoot -31.3906 25.1683
ltoes -63.0673
93
root 23.8187 15.4997 3.25865 58.9256 -87.6829 -48.8436
lowerback 7.26628 0.667918 -1.84212
upperback -7.55113 0.772986 2.33787
thorax -12.3426 0.606824 3.46291
lowerneck -6.47038 1.52762 -0.804859
upperneck 52.4102 -3.36881 1.00791
head 23.8397 -2.73459 -0.549418
rclavicle 6.08778e-016 -2.38542e-015
rhumerus -44.4379 17.2728 -80.3461
rradius 31.0261
rwrist -12.2399
rhand -15.0092 -23.1655
rfingers 7.12502
rthumb 11.1559 -52.849
lclavicle 6.08778e-016 -2.38542e-015
lhumerus -41.3624 -2.81543 87.8228
lradius 28.9149
lwrist -5.74367
lhand -23.7236 36.284
lfingers 7.12502
lthumb 2.74434 66.246
rfemur -29.408 28.0684 15.3221
rtibia -5.10317
rfoot -37.1639 -34.4204
rtoes 7.45607
lfemur 7.48365 -28.3213 -37.9023
ltibia -3.69597
lfoot -31.0554 25.0454
ltoes -63.3028
94
root 23.7082 15.4883 3.23933 49.0657 -87.4513 -38.7236
lowerback 7.50498 0.485893 -1.55411
upperback -7.49448 0.555871 2.23208
thorax -12.3989 0.47351 3.22292
lowerneck -5.92563 1.82783 -0.707316
upperneck 53.063 -3.14636 0.925364
head 24.3213 -2.68862 -0.601267
rclavicle -1.95057e-015 -1.98785e-014
rhumerus -44.2048 17.3901 -80.7146
rradius 30.9922
rwrist -11.9783
rhand -15.4889 -22.8568
rfingers 7.12502
rthumb 10.6932 -52.5647
lclavicle -1.95057e-015 -1.98785e-014
lhumerus -41.3822 -3.2546 87.9741
lradius 29.3261
lwrist -5.09638
lhand -23.3748 35.9586
lfingers 7.12502
lthumb 3.08116 65.9161
rfemur -29.2024 27.6692 15.8759
rtibia -5.97749
rfoot -34.5896 -35.372
rtoes 2.84238
lfemur 7.63678 -28.4145 -38.0344
ltibia -3.59948
lfoot -31.1646 24.7058
ltoes -63.4349
95
root 23.5911 15.4763 3.21984 40.8155 -87.1369 -30.1735
lowerback 7.0439 0.679054 -2.05582
upperback -7.26149 0.784161 2.46032
thorax -11.8814 0.630678 3.70874
lowerneck -5.66876 1.85272 -0.65931
upperneck 53.9322 -3.42571 0.836578
head 25.2615 -2.81732 -0.763097
rclavicle 8.94531e-016 5.1684e-015
rhumerus -44.1208 17.185 -80.1865
rradius 31.2764
rwrist -12.232
rhand -15.6592 -22.6423
rfingers 7.12502
rthumb 10.5289 -52.3586
lclavicle 8.94531e-016 5.1684e-015
lhumerus -41.1116 -4.21857 89.0862
lradius 29.603
lwrist -4.60769
lhand -23.9906 35.9903
lfingers 7.12502
lthumb 2.48641 65.9555
rfemur -29.0223 27.2264 16.3912
rtibia -6.50978
rfoot -34.1733 -34.9813
rtoes 2.8432
lfemur 7.73955 -28.3329 -38.125
ltibia -3.47143
lfoot -31.1232 24.4047
ltoes -63.7938
96
root 23.4705 15.4635 3.19987 33.6077 -86.8342 -22.6579
lowerback 7.17918 0.569713 -1.95327
upperback -7.21574 0.644678 2.39608
thorax -11.8959 0.552652 3.60411
lowerneck -5.07337 1.86761 -0.744289
upperneck 54.2446 -3.46841 0.65308
head 25.3589 -2.89654 -0.87163
rclavicle 8.19366e-015 1.51076e-014
rhumerus -44.0102 17.4389 -80.4991
rradius 31.3427
rwrist -12.2414
rhand -15.851 -22.1829
rfingers 7.12502
rthumb 10.3439 -51.9085
lclavicle 8.19366e-015 1.51076e-014
lhumerus -41.3966 -4.89675 89.4069
lradius 30.3164
lwrist -3.87538
lhand -25.2317 36.4689
lfingers 7.12502
lthumb 1.2878 66.4447
rfemur -28.9135 26.7562 16.7564
rtibia -6.6273
rfoot -34.1417 -34.2731
rtoes 4.01278
lfemur 7.69674 -27.7849 -38.1468
ltibia -3.2604
lfoot -30.4647 24.1415
ltoes -64.492
97
root 23.3444 15.4481 3.1774 28.3395 -86.5002 -17.0674
lowerback 7.35183 0.506549 -1.89555
upperback -7.21996 0.562717 2.35267
thorax -11.9979 0.508752 3.53949
lowerneck -5.09032 2.09163 -0.595448
upperneck 54.6653 -3.28961 0.644826
head 25.9213 -2.81007 -0.900928
rclavicle 6.77731e-015 3.18055e-014
rhumerus -43.875 17.4266 -80.6479
rradius 31.302
rwrist -12.1649
rhand -14.941 -23.4666
rfingers 7.12502
rthumb 11.2216 -53.1464
lclavicle 6.77731e-015 3.18055e-014
lhumerus -41.6993 -5.50161 89.7045
lradius 30.6948
lwrist -3.30054
lhand -25.6719 35.5268
lfingers 7.12502
lthumb 0.862595 65.5048
rfemur -28.9308 26.287 17.0961
rtibia -6.19446
rfoot -32.4716 -34.7985
rtoes 1.58103
lfemur 7.76646 -27.5736 -38.2258
ltibia -3.11731
lfoot -30.0371 24.0547
ltoes -65.0194
98
root 23.2138 15.4266 3.15457 24.1708 -86.2184 -12.4826
lowerback 7.35136 0.518427 -1.94642
upperback -7.23693 0.571575 2.34141
thorax -12.0186 0.517505 3.5547
lowerneck -5.03496 2.1259 -0.657695
upperneck 54.8341 -3.30661 0.704371
head 26.1338 -2.82213 -0.861934
rclavicle -6.16698e-015 -7.55382e-015
rhumerus -43.889 17.3644 -80.6965
rradius 31.4672
rwrist -12.2864
rhand -13.8065 -25.0576
rfingers 7.12502
rthumb 12.3157 -54.6749
lclavicle -6.16698e-015 -7.55382e-015
lhumerus -41.7846 -5.6969 89.9092
lradius 30.6734
lwrist -3.38135
lhand -25.2854 34.2731
lfingers 7.12502
lthumb 1.23596 64.2493
rfemur -29.1964 25.8576 17.309
rtibia -5.32416
rfoot -29.1479 -35.9071
rtoes -3.20365
lfemur 7.85845 -27.8032 -38.4196
ltibia -3.00192
lfoot -30.1808 23.953
ltoes -65.0583
99
root 23.0766 15.4062 3.12935 20.3516 -85.8521 -8.22907
lowerback 7.25247 0.544279 -2.0955
upperback -7.24457 0.591986 2.37708
thorax -11.9723 0.541371 3.67401
lowerneck -5.05816 2.04844 -0.782068
upperneck 54.8743 -3.41035 0.724897
head 26.2107 -2.87121 -0.842127
rclavicle 7.01958e-016 -2.78299e-014
rhumerus -44.0796 17.4739 -80.7964
rradius 31.7455
rwrist -12.8473
rhand -14.4311 -24.1956
rfingers 7.12502
rthumb 11.7134 -53.8482
lclavicle 7.01958e-016 -2.78299e-014
lhumerus -42.0107 -6.18639 90.3554
lradius 30.8868
lwrist -3.41622
lhand -25.2945 34.4564
lfingers 7.12502
lthumb 1.22718 64.4326
rfemur -29.3287 25.3849 17.5618
rtibia -4.85215
rfoot -26.704 -36.0267
rtoes -3.25568
lfemur 7.78305 -27.9297 -38.5171
ltibia -2.69478
lfoot -30.4862 23.3798
ltoes -64.8184
100
root 22.9251 15.3928 3.09789 17.9007 -85.2932 -5.48303
lowerback 7.19429 0.569775 -2.2854
upperback -7.22629 0.614328 2.4821
thorax -11.9243 0.573444 3.89204
lowerneck -5.12753 1.91506 -0.793276
upperneck 54.9071 -3.5884 0.665045
head 26.2959 -2.9242 -0.909709
rclavicle -7.15625e-015 -8.74653e-015
rhumerus -44.3576 17.5955 -80.8764
rradius 31.9043
rwrist -13.5885
rhand -14.9643 -23.3882
rfingers 7.12502
rthumb 11.1992 -53.0693
lclavicle -7.15625e-015 -8.74653e-015
lhumerus -42.2845 -6.77789 90.9393
lradius 31.0587
lwrist -3.4532
lhand -25.8527 34.5725
lfingers 7.12502
lthumb 0.688059 64.5511
rfemur -28.9562 24.8229 18.0892
rtibia -5.18605
rfoot -25.9434 -35.8723
rtoes 1.30985
lfemur 7.93657 -28.171 -38.5716
ltibia -2.3538
lfoot -30.8859 22.8253
ltoes -64.7356
101
root 22.7634 15.3818 3.06649 17.4643 -84.7931 -4.78047
lowerback 7.0423 0.660278 -2.42058
upperback -7.19607 0.73739 2.63934
thorax -11.8153 0.649958 4.11824
lowerneck -5.05426 1.6773 -0.7319
upperneck 54.7996 -3.85313 0.503874
head 26.0957 -2.99617 -1.0539
rclavicle 2.43511e-015 -1.59028e-015
rhumerus -44.4957 17.3903 -80.655
rradius 31.8644
rwrist -13.4398
rhand -14.2322 -24.1208
rfingers 7.12502
rthumb 11.9052 -53.7623
lclavicle 2.43511e-015 -1.59028e-015
lhumerus -42.4527 -7.26405 91.4855
lradius 30.9
lwrist -3.55737
lhand -26.336 33.8574
lfingers 7.12502
lthumb 0.221256 63.837
rfemur -28.5834 24.2651 18.6118
rtibia -5.40889
rfoot -26.4552 -35.9189
rtoes 6.35214
lfemur 8.31246 -28.4658 -38.5842
ltibia -2.1772
lfoot -31.1281 22.835
ltoes -65.0399
